<svg fill="none" height="37" viewBox="0 0 71 37" width="71" xmlns="http://www.w3.org/2000/svg"><rect fill="#ECEEF5" height="22" rx="10" width="66" x="4"></rect><rect fill="#3E67F8" fill-opacity="0.7" height="21" rx="10.5" stroke="#3E67F8" width="65" x="0.5" y="4.5"></rect><path d="M70.3572 28.4408C70.7383 28.2951 70.9926 27.9324 70.9998 27.5245C71.0071 27.1165 70.7657 26.7451 70.39 26.586L57.39 21.0792C57.043 20.9322 56.6428 20.9928 56.3549 21.2359C56.0669 21.479 55.9401 21.8634 56.0268 22.2302L59.1015 35.2302C59.1914 35.6099 59.4938 35.9027 59.8763 35.9801C60.2588 36.0575 60.6513 35.9054 60.8817 35.5905L64.4645 30.694L70.3572 28.4408Z" fill="#3C64F4" stroke="white" stroke-linecap="round" stroke-linejoin="round" stroke-width="2"></path><path d="M15.3909 10.146H16.6449V13.05H16.6669C16.7549 12.9107 16.8613 12.786 16.9859 12.676C17.1106 12.566 17.2463 12.4743 17.3929 12.401C17.5469 12.3203 17.7046 12.2617 17.8659 12.225C18.0346 12.181 18.1996 12.159 18.3609 12.159C18.8083 12.159 19.1969 12.2397 19.5269 12.401C19.8643 12.555 20.1429 12.7713 20.3629 13.05C20.5829 13.3213 20.7479 13.6403 20.8579 14.007C20.9679 14.3737 21.0229 14.766 21.0229 15.184C21.0229 15.5653 20.9716 15.9357 20.8689 16.295C20.7736 16.6543 20.6233 16.9733 20.4179 17.252C20.2199 17.5233 19.9669 17.7433 19.6589 17.912C19.3509 18.0733 18.9879 18.154 18.5699 18.154C18.3793 18.154 18.1849 18.1393 17.9869 18.11C17.7963 18.088 17.6129 18.0403 17.4369 17.967C17.2609 17.8937 17.0996 17.7983 16.9529 17.681C16.8136 17.5637 16.6963 17.4097 16.6009 17.219H16.5789V18H15.3909V10.146ZM19.7689 15.162C19.7689 14.9053 19.7359 14.656 19.6699 14.414C19.6039 14.172 19.5049 13.9593 19.3729 13.776C19.2409 13.5853 19.0759 13.435 18.8779 13.325C18.6799 13.2077 18.4526 13.149 18.1959 13.149C17.6679 13.149 17.2683 13.3323 16.9969 13.699C16.7329 14.0657 16.6009 14.5533 16.6009 15.162C16.6009 15.448 16.6339 15.7157 16.6999 15.965C16.7733 16.207 16.8796 16.416 17.0189 16.592C17.1583 16.768 17.3233 16.9073 17.5139 17.01C17.7119 17.1127 17.9393 17.164 18.1959 17.164C18.4819 17.164 18.7239 17.1053 18.9219 16.988C19.1199 16.8707 19.2813 16.7203 19.4059 16.537C19.5379 16.3463 19.6296 16.1337 19.6809 15.899C19.7396 15.657 19.7689 15.4113 19.7689 15.162ZM27.9566 18H26.7246V17.208H26.7026C26.5486 17.494 26.3176 17.725 26.0096 17.901C25.7089 18.0697 25.4009 18.154 25.0856 18.154C24.3376 18.154 23.7949 17.9707 23.4576 17.604C23.1276 17.23 22.9626 16.669 22.9626 15.921V12.313H24.2166V15.8C24.2166 16.2987 24.3119 16.6507 24.5026 16.856C24.6932 17.0613 24.9609 17.164 25.3056 17.164C25.5696 17.164 25.7896 17.1237 25.9656 17.043C26.1416 16.9623 26.2846 16.856 26.3946 16.724C26.5046 16.5847 26.5816 16.4197 26.6256 16.229C26.6769 16.0383 26.7026 15.833 26.7026 15.613V12.313H27.9566V18ZM29.587 12.313H30.533V10.608H31.787V12.313H32.92V13.248H31.787V16.284C31.787 16.416 31.7906 16.5297 31.798 16.625C31.8126 16.7203 31.8383 16.801 31.875 16.867C31.919 16.933 31.9813 16.9843 32.062 17.021C32.1426 17.0503 32.2526 17.065 32.392 17.065C32.48 17.065 32.568 17.065 32.656 17.065C32.744 17.0577 32.832 17.043 32.92 17.021V17.989C32.7806 18.0037 32.645 18.0183 32.513 18.033C32.381 18.0477 32.2453 18.055 32.106 18.055C31.776 18.055 31.5083 18.0257 31.303 17.967C31.105 17.901 30.9473 17.8093 30.83 17.692C30.72 17.5673 30.643 17.4133 30.599 17.23C30.5623 17.0467 30.5403 16.8377 30.533 16.603V13.248H29.587V12.313ZM34.13 12.313H35.076V10.608H36.33V12.313H37.463V13.248H36.33V16.284C36.33 16.416 36.3337 16.5297 36.341 16.625C36.3557 16.7203 36.3814 16.801 36.418 16.867C36.462 16.933 36.5244 16.9843 36.605 17.021C36.6857 17.0503 36.7957 17.065 36.935 17.065C37.023 17.065 37.111 17.065 37.199 17.065C37.287 17.0577 37.375 17.043 37.463 17.021V17.989C37.3237 18.0037 37.188 18.0183 37.056 18.033C36.924 18.0477 36.7884 18.055 36.649 18.055C36.319 18.055 36.0514 18.0257 35.846 17.967C35.648 17.901 35.4904 17.8093 35.373 17.692C35.263 17.5673 35.186 17.4133 35.142 17.23C35.1054 17.0467 35.0834 16.8377 35.076 16.603V13.248H34.13V12.313ZM41.8521 18.154C41.3975 18.154 40.9905 18.0807 40.6311 17.934C40.2791 17.78 39.9785 17.571 39.7291 17.307C39.4871 17.043 39.3001 16.7277 39.1681 16.361C39.0435 15.9943 38.9811 15.591 38.9811 15.151C38.9811 14.7183 39.0435 14.3187 39.1681 13.952C39.3001 13.5853 39.4871 13.27 39.7291 13.006C39.9785 12.742 40.2791 12.5367 40.6311 12.39C40.9905 12.236 41.3975 12.159 41.8521 12.159C42.3068 12.159 42.7101 12.236 43.0621 12.39C43.4215 12.5367 43.7221 12.742 43.9641 13.006C44.2135 13.27 44.4005 13.5853 44.5251 13.952C44.6571 14.3187 44.7231 14.7183 44.7231 15.151C44.7231 15.591 44.6571 15.9943 44.5251 16.361C44.4005 16.7277 44.2135 17.043 43.9641 17.307C43.7221 17.571 43.4215 17.78 43.0621 17.934C42.7101 18.0807 42.3068 18.154 41.8521 18.154ZM41.8521 17.164C42.1308 17.164 42.3728 17.1053 42.5781 16.988C42.7835 16.8707 42.9521 16.7167 43.0841 16.526C43.2161 16.3353 43.3115 16.1227 43.3701 15.888C43.4361 15.646 43.4691 15.4003 43.4691 15.151C43.4691 14.909 43.4361 14.667 43.3701 14.425C43.3115 14.183 43.2161 13.9703 43.0841 13.787C42.9521 13.5963 42.7835 13.4423 42.5781 13.325C42.3728 13.2077 42.1308 13.149 41.8521 13.149C41.5735 13.149 41.3315 13.2077 41.1261 13.325C40.9208 13.4423 40.7521 13.5963 40.6201 13.787C40.4881 13.9703 40.3891 14.183 40.3231 14.425C40.2645 14.667 40.2351 14.909 40.2351 15.151C40.2351 15.4003 40.2645 15.646 40.3231 15.888C40.3891 16.1227 40.4881 16.3353 40.6201 16.526C40.7521 16.7167 40.9208 16.8707 41.1261 16.988C41.3315 17.1053 41.5735 17.164 41.8521 17.164ZM46.6456 12.313H47.8336V13.149L47.8556 13.171C48.0463 12.8557 48.2956 12.61 48.6036 12.434C48.9116 12.2507 49.2526 12.159 49.6266 12.159C50.25 12.159 50.7413 12.3203 51.1006 12.643C51.46 12.9657 51.6396 13.4497 51.6396 14.095V18H50.3856V14.425C50.371 13.9777 50.2756 13.655 50.0996 13.457C49.9236 13.2517 49.6486 13.149 49.2746 13.149C49.062 13.149 48.8713 13.1893 48.7026 13.27C48.534 13.3433 48.391 13.4497 48.2736 13.589C48.1563 13.721 48.0646 13.8787 47.9986 14.062C47.9326 14.2453 47.8996 14.4397 47.8996 14.645V18H46.6456V12.313Z" fill="white"></path></svg>