<svg fill="none" height="34" viewBox="0 0 83 34" width="83" xmlns="http://www.w3.org/2000/svg"><rect fill="#ECEEF5" height="32" rx="2" width="59" x="17"></rect><path d="M6.56648 14C6.68549 14 6.78749 14.0391 6.8725 14.1173C6.9065 14.1408 6.932 14.1681 6.949 14.1994C6.966 14.2307 6.97875 14.2639 6.98725 14.2991C6.99575 14.3343 7 14.3695 7 14.4047C7 14.4399 6.99575 14.4731 6.98725 14.5044C6.97875 14.5357 6.966 14.567 6.949 14.5982C6.932 14.6295 6.9065 14.6608 6.8725 14.6921L1.05829 20.0411L6.79599 25.3196C6.84699 25.3666 6.88312 25.4252 6.90437 25.4956C6.92562 25.566 6.92562 25.6364 6.90437 25.7067C6.88312 25.7771 6.84699 25.8358 6.79599 25.8827C6.71099 25.9609 6.60686 26 6.48361 26C6.36035 26 6.25622 25.9609 6.17122 25.8827L0.127505 20.3226C0.0425015 20.2444 0 20.1505 0 20.0411C0 19.9316 0.0425015 19.8377 0.127505 19.7595L6.26047 14.1173C6.34548 14.0391 6.44748 14 6.56648 14Z" fill="#2852EB"></path><path d="M75.4335 26C75.3145 26 75.2125 25.9609 75.1275 25.8827C75.0935 25.8592 75.068 25.8319 75.051 25.8006C75.034 25.7693 75.0213 25.7361 75.0128 25.7009C75.0043 25.6657 75 25.6305 75 25.5953C75 25.5601 75.0043 25.5269 75.0128 25.4956C75.0213 25.4643 75.034 25.433 75.051 25.4018C75.068 25.3705 75.0935 25.3392 75.1275 25.3079L80.9417 19.9589L75.204 14.6804C75.153 14.6334 75.1169 14.5748 75.0956 14.5044C75.0744 14.434 75.0744 14.3636 75.0956 14.2933C75.1169 14.2229 75.153 14.1642 75.204 14.1173C75.289 14.0391 75.3931 14 75.5164 14C75.6396 14 75.7438 14.0391 75.8288 14.1173L81.8725 19.6774C81.9575 19.7556 82 19.8495 82 19.9589C82 20.0684 81.9575 20.1623 81.8725 20.2405L75.7395 25.8827C75.6545 25.9609 75.5525 26 75.4335 26Z" fill="#2852EB" stroke="#3E67F8" stroke-width="0.25"></path><rect fill="#3E67F8" fill-opacity="0.7" height="15" rx="1.5" stroke="#3E67F8" width="19" x="49.5" y="12.666"></rect><path d="M56.2223 18.4987L52.3334 23.4987H66.2223L60.6667 16.832L57.8889 20.7209L56.2223 18.4987Z" fill="white"></path><rect fill="#3E67F8" fill-opacity="0.7" height="27" rx="1.5" stroke="#3E67F8" width="32" x="13.5" y="6.5"></rect><path d="M25.2693 19.7684L19.7693 26.5377H39.2308L31.6154 17.23L27.3847 22.3069L25.2693 19.7684Z" fill="white"></path><circle cx="21.8847" cy="15.1154" fill="white" r="2.11538"></circle></svg>