<svg fill="none" height="35" viewBox="0 0 69 35" width="69" xmlns="http://www.w3.org/2000/svg"><rect fill="#ECEEF5" height="30" rx="2" width="64" x="5"></rect><rect fill="#3E67F8" fill-opacity="0.7" height="29" rx="1.5" stroke="#3E67F8" width="63" x="0.5" y="5.5"></rect><path d="M11.6522 19.9564L6 26.9129H26L18.1739 17.3477L13.8261 22.565L11.6522 19.9564Z" fill="white"></path><circle cx="8.17391" cy="15.1739" fill="white" r="2.17391"></circle><path d="M31 6H62C62.5523 6 63 6.44772 63 7V33C63 33.5523 62.5523 34 62 34H31V6Z" fill="white"></path><rect fill="#3E67F8" fill-opacity="0.7" height="2" rx="1" width="18" x="38" y="12"></rect><rect fill="#3E67F8" fill-opacity="0.7" height="2" rx="1" width="18" x="38" y="22"></rect><rect fill="#3E67F8" fill-opacity="0.7" height="2" rx="1" width="18" x="38" y="17"></rect><rect fill="#3E67F8" fill-opacity="0.7" height="2" rx="1" width="10" x="38" y="27"></rect></svg>