<svg fill="none" height="38" viewBox="0 0 38 38" width="38" xmlns="http://www.w3.org/2000/svg"><circle cx="19" cy="19" fill="#3E67F8" fill-opacity="0.7" r="18.5" stroke="#3E67F8"></circle><path d="M22.1347 9.09198C21.8735 8.96168 21.6122 8.96982 21.351 9.11641C21.0898 9.263 20.9265 9.49918 20.8612 9.82494L15.1306 28.6864C15 29.2728 15.2449 29.68 15.8653 29.908C16.1265 30.0383 16.3878 30.0302 16.649 29.8836C16.9102 29.737 17.0735 29.5008 17.1388 29.1751L22.7714 10.3136C23 9.72721 22.7878 9.32001 22.1347 9.09198ZM24.3388 24.7284C24.7959 25.1845 25.2857 25.1845 25.8082 24.7284L31 19.5L25.8082 14.2716C25.2857 13.8155 24.7959 13.8155 24.3388 14.2716C23.8163 14.7928 23.8163 15.2814 24.3388 15.7375L28.1102 19.5L24.3388 23.2625C23.9469 23.7186 23.9469 24.2072 24.3388 24.7284ZM12.0939 24.7284C12.6163 25.1845 13.1061 25.1845 13.5633 24.7284C14.0857 24.2072 14.0857 23.7186 13.5633 23.2625L9.8898 19.5L13.6612 15.7375C14.1837 15.2814 14.1837 14.7928 13.6612 14.2716C13.2041 13.8155 12.7143 13.8155 12.1918 14.2716L7 19.5L12.0939 24.7284Z" fill="white"></path></svg>