<svg fill="none" height="41" viewBox="0 0 36 41" width="36" xmlns="http://www.w3.org/2000/svg"><rect fill="#ECEEF5" height="37" rx="2" width="31" x="5"></rect><rect fill="#3E67F8" fill-opacity="0.7" height="36" rx="1.5" stroke="#3C64F4" width="30" x="0.5" y="4.5"></rect><path d="M0.5 29.5H30.5V39C30.5 39.8284 29.8284 40.5 29 40.5H2C1.17157 40.5 0.5 39.8284 0.5 39V29.5Z" fill="white" stroke="#3C64F4"></path><rect fill="#9EB3FC" height="2" rx="1" width="5" x="5" y="34"></rect><rect fill="#9EB3FC" height="2" rx="1" width="15" x="11" y="34"></rect><path d="M18.3081 18.0008C17.8592 18.0008 17.4369 17.7598 17.2084 17.3741L15.5006 14.5188L13.7954 17.3741C13.5643 17.7624 13.142 18.0035 12.6931 18.0035C12.5736 18.0035 12.4541 17.9874 12.3399 17.9526L8.70102 16.9026V21.6704C8.70102 22.0641 8.96663 22.407 9.34379 22.5007L15.0862 23.9498C15.3572 24.0167 15.6414 24.0167 15.9096 23.9498L21.6574 22.5007C22.0346 22.4043 22.3002 22.0614 22.3002 21.6704V16.9026L18.6613 17.9499C18.5471 17.9848 18.4276 18.0008 18.3081 18.0008ZM23.9549 14.9956L22.587 12.2421C22.5047 12.076 22.3267 11.9796 22.1434 12.0037L15.5006 12.8581L17.9362 16.9321C18.0371 17.1009 18.239 17.1812 18.4276 17.1276L23.684 15.6143C23.9469 15.5366 24.0744 15.242 23.9549 14.9956ZM8.41416 12.2421L7.04628 14.9956C6.9241 15.242 7.05425 15.5366 7.31454 15.6116L12.5709 17.125C12.7595 17.1785 12.9614 17.0982 13.0623 16.9294L15.5006 12.8581L8.85507 12.0037C8.6718 11.9822 8.4965 12.076 8.41416 12.2421Z" fill="white"></path></svg>