<svg width="256" height="256" viewBox="0 0 256 256" fill="none" xmlns="http://www.w3.org/2000/svg">
    <rect width="256" height="256" fill="#D9DCE9"></rect>
    <path d="M127.73 96.0125C127.479 96.0377 127.233 96.0967 127 96.1875L97.5947 107.388C97.1206 107.571 96.716
        107.88 96.4321 108.276C96.1482 108.673 95.9978 109.138 96 109.613V146.414C96.0032 146.885 96.156 147.345
        96.4396 147.736C96.7231 148.127 97.1248 148.433 97.5947 148.614L127 159.815C127.317 159.937 127.657 160 128
        160C128.343 160 128.683 159.937 129 159.815L158.405 148.614C158.875 148.433 159.277 148.127 159.56
        147.736C159.844 147.345 159.997 146.885 160 146.414V109.613C160.002 109.138 159.852 108.673 159.568
        108.276C159.284 107.88 158.879 107.571 158.405 107.388L129 96.1875C128.599 96.0317 128.162 95.9715 127.73
        96.0125ZM128 100.988L150.595 109.613L128 118.213L105.405 109.613L128 100.988ZM101.189 113.188L125.405
        122.413V154.014L101.189 144.789V113.188ZM154.811 113.188V144.789L130.595 154.014V122.413L154.811 113.188Z" fill="white"></path>
</svg>