<svg fill="none" height="41" viewBox="0 0 84 41" width="84" xmlns="http://www.w3.org/2000/svg"><rect fill="#ECEEF5" height="37" rx="2" width="59" x="19"></rect><path d="M7.56648 20C7.68549 20 7.78749 20.0391 7.8725 20.1173C7.9065 20.1408 7.932 20.1681 7.949 20.1994C7.966 20.2307 7.97875 20.2639 7.98725 20.2991C7.99575 20.3343 8 20.3695 8 20.4047C8 20.4399 7.99575 20.4731 7.98725 20.5044C7.97875 20.5357 7.966 20.567 7.949 20.5982C7.932 20.6295 7.9065 20.6608 7.8725 20.6921L2.05829 26.0411L7.79599 31.3196C7.84699 31.3666 7.88312 31.4252 7.90437 31.4956C7.92562 31.566 7.92562 31.6364 7.90437 31.7067C7.88312 31.7771 7.84699 31.8358 7.79599 31.8827C7.71099 31.9609 7.60686 32 7.48361 32C7.36035 32 7.25622 31.9609 7.17122 31.8827L1.1275 26.3226C1.0425 26.2444 1 26.1505 1 26.0411C1 25.9316 1.0425 25.8377 1.1275 25.7595L7.26047 20.1173C7.34548 20.0391 7.44748 20 7.56648 20Z" fill="#2852EB" stroke="#3E67F8" stroke-width="0.25"></path><path d="M76.4335 32C76.3145 32 76.2125 31.9609 76.1275 31.8827C76.0935 31.8592 76.068 31.8319 76.051 31.8006C76.034 31.7693 76.0213 31.7361 76.0128 31.7009C76.0043 31.6657 76 31.6305 76 31.5953C76 31.5601 76.0043 31.5269 76.0128 31.4956C76.0213 31.4643 76.034 31.433 76.051 31.4018C76.068 31.3705 76.0935 31.3392 76.1275 31.3079L81.9417 25.9589L76.204 20.6804C76.153 20.6334 76.1169 20.5748 76.0956 20.5044C76.0744 20.434 76.0744 20.3636 76.0956 20.2933C76.1169 20.2229 76.153 20.1642 76.204 20.1173C76.289 20.0391 76.3931 20 76.5164 20C76.6396 20 76.7438 20.0391 76.8288 20.1173L82.8725 25.6774C82.9575 25.7556 83 25.8495 83 25.9589C83 26.0684 82.9575 26.1623 82.8725 26.2405L76.7395 31.8827C76.6545 31.9609 76.5525 32 76.4335 32Z" fill="#2852EB" stroke="#3E67F8" stroke-width="0.25"></path><rect fill="#3E67F8" fill-opacity="0.7" height="36" rx="1.5" stroke="#3C64F4" width="30" x="14.5" y="4.5"></rect><path d="M14.5 29.5H44.5V39C44.5 39.8284 43.8284 40.5 43 40.5H16C15.1716 40.5 14.5 39.8284 14.5 39V29.5Z" fill="white" stroke="#3C64F4"></path><rect fill="#9EB3FC" height="2" rx="1" width="5" x="19" y="34"></rect><rect fill="#9EB3FC" height="2" rx="1" width="15" x="25" y="34"></rect><path d="M32.3081 18.0008C31.8592 18.0008 31.4369 17.7598 31.2084 17.3741L29.5006 14.5188L27.7954 17.3741C27.5643 17.7624 27.142 18.0035 26.6931 18.0035C26.5736 18.0035 26.4541 17.9874 26.3399 17.9526L22.701 16.9026V21.6704C22.701 22.0641 22.9666 22.407 23.3438 22.5007L29.0862 23.9498C29.3572 24.0167 29.6414 24.0167 29.9096 23.9498L35.6574 22.5007C36.0346 22.4043 36.3002 22.0614 36.3002 21.6704V16.9026L32.6613 17.9499C32.5471 17.9848 32.4276 18.0008 32.3081 18.0008ZM37.9549 14.9956L36.587 12.2421C36.5047 12.076 36.3267 11.9796 36.1434 12.0037L29.5006 12.8581L31.9362 16.9321C32.0371 17.1009 32.239 17.1812 32.4276 17.1276L37.684 15.6143C37.9469 15.5366 38.0744 15.242 37.9549 14.9956ZM22.4142 12.2421L21.0463 14.9956C20.9241 15.242 21.0542 15.5366 21.3145 15.6116L26.5709 17.125C26.7595 17.1785 26.9614 17.0982 27.0623 16.9294L29.5006 12.8581L22.8551 12.0037C22.6718 11.9822 22.4965 12.076 22.4142 12.2421Z" fill="white"></path><rect fill="#3E67F8" fill-opacity="0.7" height="23.8708" rx="1.5" stroke="#3C64F4" width="20" x="49.446" y="11.5"></rect><path d="M49.5 29.5H69.5V34C69.5 34.8284 68.8284 35.5 68 35.5H51C50.1716 35.5 49.5 34.8284 49.5 34V29.5Z" fill="white" stroke="#3C64F4"></path><path d="M59.5 27C60.6336 27 61.6894 26.7678 62.6674 26.3033C63.6455 25.8388 64.423 25.1544 65 24.25C64.6726 24.0454 64.1815 23.9533 63.5268 23.9738C62.872 23.9942 62.2623 24.1272 61.6975 24.3728C61.3292 24.5324 61.0039 24.7329 60.7215 24.9743C60.4392 25.2158 60.2427 25.447 60.1323 25.668V22.9118C60.9548 22.7972 61.6341 22.4842 62.1702 21.9727C62.7063 21.4611 62.9743 20.7941 62.9743 19.9715V16.4972C62.9743 16.3581 62.9262 16.2404 62.8301 16.1443C62.7339 16.0481 62.6163 16 62.4771 16C62.3912 16.0409 62.2531 16.1565 62.0628 16.3468C61.8725 16.5371 61.6617 16.7601 61.4305 17.0159C61.1993 17.2717 61.053 17.4302 60.9916 17.4916C60.9384 17.4384 60.7932 17.2737 60.5558 16.9975C60.3185 16.7213 60.1026 16.486 59.9082 16.2916C59.7138 16.0972 59.5778 16 59.5 16C59.4182 16 59.28 16.0972 59.0857 16.2916C58.8913 16.486 58.6764 16.7213 58.4411 16.9975C58.2058 17.2737 58.0616 17.4384 58.0084 17.4916C57.947 17.4302 57.8007 17.2717 57.5695 17.0159C57.3383 16.7601 57.1275 16.5371 56.9372 16.3468C56.7469 16.1565 56.6068 16.0409 56.5167 16C56.3817 16 56.2651 16.0481 56.1669 16.1443C56.0686 16.2404 56.0195 16.3581 56.0195 16.4972V19.9715C56.0195 20.389 56.0942 20.7726 56.2436 21.1225C56.393 21.4724 56.5986 21.768 56.8605 22.0095C57.1224 22.2509 57.4232 22.4484 57.7628 22.6018C58.1025 22.7553 58.4688 22.8586 58.8616 22.9118V25.668C58.7552 25.4511 58.5608 25.2209 58.2785 24.9774C57.9961 24.7339 57.6708 24.5324 57.3025 24.3728C56.7377 24.1272 56.128 23.9942 55.4732 23.9738C54.8185 23.9533 54.3274 24.0454 54 24.25C54.5811 25.1544 55.3597 25.8388 56.3357 26.3033C57.3117 26.7678 58.3664 27 59.5 27Z" fill="white"></path></svg>