<svg fill="none" height="38" viewBox="0 0 46 38" width="46" xmlns="http://www.w3.org/2000/svg"><circle cx="24.9999" cy="19" fill="#ECEEF5" r="19"></circle><path d="M26.3413 9.02087C25.2373 9.02087 24.0413 8.91354 22.7533 8.69887C21.4959 8.48421 20.1773 8.22354 18.7973 7.91687V38.0009H13.8293V7.18087C13.4919 7.11954 13.1699 7.08887 12.8633 7.08887C12.5873 7.08887 12.2959 7.08887 11.9893 7.08887C9.41326 7.08887 7.43526 7.56421 6.05526 8.51487C4.70592 9.43487 4.03126 11.1215 4.03126 13.5749C4.03126 15.4149 4.23059 16.8255 4.62926 17.8069C5.05859 18.7575 5.48792 19.4782 5.91726 19.9689C5.15059 19.9689 4.42992 19.8615 3.75526 19.6469C3.11126 19.4015 2.54392 19.0182 2.05326 18.4969C1.56259 17.9755 1.17926 17.3009 0.903258 16.4729C0.627258 15.6142 0.489258 14.5562 0.489258 13.2989C0.489258 12.0415 0.734591 10.8302 1.22526 9.66487C1.71592 8.49954 2.49792 7.47221 3.57126 6.58287C4.67526 5.66287 6.08592 4.92687 7.80326 4.37488C9.55126 3.82288 11.6826 3.54688 14.1973 3.54688C15.4239 3.54688 16.5279 3.60821 17.5093 3.73087C18.5213 3.82287 19.4566 3.94554 20.3153 4.09887C21.2046 4.22154 22.0786 4.34421 22.9373 4.46687C23.7959 4.55887 24.7006 4.60488 25.6513 4.60488C26.9393 4.60488 28.0126 4.51287 28.8713 4.32887C29.7606 4.11421 30.4966 3.88421 31.0793 3.63887C31.1713 4.19087 31.2173 4.71221 31.2173 5.20287C31.2173 7.74821 29.5919 9.02087 26.3413 9.02087Z" fill="#3E67F8" fill-opacity="0.73"></path><path d="M42.1499 19.7309C41.4539 19.7309 40.6999 19.6632 39.8879 19.5279C39.0952 19.3925 38.2639 19.2282 37.3939 19.0349V38.0009H34.2619V18.5709C34.0492 18.5322 33.8462 18.5129 33.6529 18.5129C33.4789 18.5129 33.2952 18.5129 33.1019 18.5129C31.4779 18.5129 30.2309 18.8125 29.3609 19.4119C28.5102 19.9919 28.0849 21.0552 28.0849 22.6019C28.0849 23.7619 28.2106 24.6512 28.4619 25.2699C28.7326 25.8692 29.0032 26.3235 29.2739 26.6329C28.7906 26.6329 28.3362 26.5652 27.9109 26.4299C27.5049 26.2752 27.1472 26.0335 26.8379 25.7049C26.5286 25.3762 26.2869 24.9509 26.1129 24.4289C25.9389 23.8875 25.8519 23.2205 25.8519 22.4279C25.8519 21.6352 26.0066 20.8715 26.3159 20.1369C26.6252 19.4022 27.1182 18.7545 27.7949 18.1939C28.4909 17.6139 29.3802 17.1499 30.4629 16.8019C31.5649 16.4539 32.9086 16.2799 34.4939 16.2799C35.2672 16.2799 35.9632 16.3185 36.5819 16.3959C37.2199 16.4539 37.8096 16.5312 38.3509 16.6279C38.9116 16.7052 39.4626 16.7825 40.0039 16.8599C40.5452 16.9179 41.1156 16.9469 41.7149 16.9469C42.5269 16.9469 43.2036 16.8889 43.7449 16.7729C44.3056 16.6375 44.7696 16.4925 45.1369 16.3379C45.1949 16.6859 45.2239 17.0145 45.2239 17.3239C45.2239 18.9285 44.1992 19.7309 42.1499 19.7309Z" fill="#3E67F8" fill-opacity="0.73"></path></svg>