<svg fill="none" height="32" viewBox="0 0 70 32" width="70" xmlns="http://www.w3.org/2000/svg"><rect fill="#ECEEF5" height="25" rx="2" width="70" y="7"></rect><path d="M54.0667 21.9803H54.0005C53.6671 21.9732 53.3405 21.9147 53.0401 21.8097L53.0396 21.8095C52.9784 21.7881 52.9214 21.7626 52.8694 21.7337L52.8684 21.7332L45.2867 17.543C45.2867 17.543 45.2867 17.543 45.2867 17.543C44.9643 17.3648 44.7141 17.1354 44.547 16.8827C44.3808 16.6314 44.3001 16.3626 44.3 16.0979C44.3 16.0978 44.3 16.0978 44.3 16.0977V10.3835C44.3 10.3835 44.3 10.3834 44.3 10.3834C44.3001 10.1186 44.3808 9.84987 44.547 9.5985C44.7141 9.34577 44.9643 9.11637 45.2867 8.9382C45.2867 8.9382 45.2867 8.9382 45.2867 8.93819L52.8684 4.74804L52.8694 4.74752C52.9214 4.71862 52.9783 4.69307 53.0396 4.67174L53.0398 4.67166C53.4216 4.5384 53.844 4.48092 54.267 4.50719C54.6901 4.53346 55.0926 4.64218 55.4377 4.81825C55.7829 4.99438 56.0529 5.22851 56.2334 5.48971C56.413 5.74943 56.5 6.02897 56.5 6.30403V20.1772C56.5 20.611 56.2813 21.0598 55.8321 21.4124C55.38 21.7674 54.746 21.9803 54.0667 21.9803Z" fill="#3E67F8" fill-opacity="0.7" stroke="#3C64F4"></path><path d="M15.1681 2.15503C16.2354 1.09732 17.6834 0.501607 19.1946 0.5H35.9991C37.4987 0.501836 38.9354 1.09306 39.9944 2.1426C41.0534 3.19205 41.6482 4.61396 41.65 6.09615V19.8606C41.6485 21.3543 41.0491 22.7874 39.9819 23.845C38.9146 24.9027 37.4665 25.4985 35.9551 25.5H19.1949C17.6835 25.4985 16.2354 24.9027 15.1681 23.845C14.101 22.7874 13.5016 21.3545 13.5 19.8608V6.13915C13.5016 4.64551 14.101 3.21258 15.1681 2.15503Z" fill="#3E67F8" fill-opacity="0.7" stroke="#3C64F4"></path><circle cx="33.5" cy="8.5" fill="white" r="2.5"></circle></svg>